<mxfile host="app.diagrams.net" modified="2024-05-08T03:45:26.351Z" agent="Mozilla/5.0 (Windows NT 10.0; Win64; x64) AppleWebKit/537.36 (KHTML, like Gecko) Chrome/123.0.0.0 Safari/537.36 OPR/109.0.0.0" etag="EgfjdFBcPx43fD_urZPZ" version="24.3.1" type="github" pages="3">
  <diagram name="Students" id="dlkdEMTvSS5LBxiheQ-i">
    <mxGraphModel dx="1016" dy="572" grid="1" gridSize="10" guides="1" tooltips="1" connect="1" arrows="1" fold="1" page="1" pageScale="1" pageWidth="850" pageHeight="1100" math="0" shadow="0">
      <root>
        <mxCell id="0" />
        <mxCell id="1" parent="0" />
        <mxCell id="-Z-Dt84qWbkAdcUz8GqA-1" value="" style="rounded=0;whiteSpace=wrap;html=1;" vertex="1" parent="1">
          <mxGeometry x="50" y="20" width="830" height="130" as="geometry" />
        </mxCell>
        <mxCell id="-Z-Dt84qWbkAdcUz8GqA-4" value="Students management - Page" style="text;html=1;align=center;verticalAlign=middle;whiteSpace=wrap;rounded=0;" vertex="1" parent="1">
          <mxGeometry x="110" y="90" width="170" height="30" as="geometry" />
        </mxCell>
        <mxCell id="-Z-Dt84qWbkAdcUz8GqA-5" value="&lt;font style=&quot;font-size: 30px;&quot;&gt;Welcome&lt;/font&gt;" style="text;strokeColor=none;fillColor=none;html=1;fontSize=24;fontStyle=1;verticalAlign=middle;align=center;" vertex="1" parent="1">
          <mxGeometry x="110" y="30" width="140" height="50" as="geometry" />
        </mxCell>
        <mxCell id="-Z-Dt84qWbkAdcUz8GqA-15" value="" style="ellipse;whiteSpace=wrap;html=1;aspect=fixed;" vertex="1" parent="1">
          <mxGeometry x="700" y="90" width="50" height="50" as="geometry" />
        </mxCell>
        <mxCell id="-Z-Dt84qWbkAdcUz8GqA-16" value="" style="ellipse;whiteSpace=wrap;html=1;aspect=fixed;" vertex="1" parent="1">
          <mxGeometry x="760" y="90" width="50" height="50" as="geometry" />
        </mxCell>
        <mxCell id="-Z-Dt84qWbkAdcUz8GqA-18" value="" style="ellipse;whiteSpace=wrap;html=1;aspect=fixed;" vertex="1" parent="1">
          <mxGeometry x="820" y="90" width="50" height="50" as="geometry" />
        </mxCell>
        <mxCell id="-Z-Dt84qWbkAdcUz8GqA-19" value="&lt;font style=&quot;font-size: 22px;&quot;&gt;+&lt;/font&gt;" style="text;html=1;align=center;verticalAlign=middle;whiteSpace=wrap;rounded=0;" vertex="1" parent="1">
          <mxGeometry x="765" y="100" width="40" height="30" as="geometry" />
        </mxCell>
        <mxCell id="-Z-Dt84qWbkAdcUz8GqA-20" value="&lt;font style=&quot;font-size: 22px;&quot;&gt;-&lt;/font&gt;" style="text;html=1;align=center;verticalAlign=middle;whiteSpace=wrap;rounded=0;" vertex="1" parent="1">
          <mxGeometry x="825" y="100" width="40" height="30" as="geometry" />
        </mxCell>
        <mxCell id="-Z-Dt84qWbkAdcUz8GqA-30" value="" style="rounded=1;whiteSpace=wrap;html=1;" vertex="1" parent="1">
          <mxGeometry x="315" y="190" width="240" height="340" as="geometry" />
        </mxCell>
        <mxCell id="-Z-Dt84qWbkAdcUz8GqA-31" value="" style="rounded=1;whiteSpace=wrap;html=1;" vertex="1" parent="1">
          <mxGeometry x="580" y="190" width="240" height="340" as="geometry" />
        </mxCell>
        <mxCell id="-Z-Dt84qWbkAdcUz8GqA-32" value="" style="rounded=1;whiteSpace=wrap;html=1;" vertex="1" parent="1">
          <mxGeometry x="50" y="550" width="240" height="340" as="geometry" />
        </mxCell>
        <mxCell id="-Z-Dt84qWbkAdcUz8GqA-33" value="" style="rounded=1;whiteSpace=wrap;html=1;" vertex="1" parent="1">
          <mxGeometry x="315" y="550" width="240" height="340" as="geometry" />
        </mxCell>
        <mxCell id="-Z-Dt84qWbkAdcUz8GqA-34" value="" style="rounded=1;whiteSpace=wrap;html=1;" vertex="1" parent="1">
          <mxGeometry x="580" y="550" width="240" height="340" as="geometry" />
        </mxCell>
        <mxCell id="-Z-Dt84qWbkAdcUz8GqA-35" value="" style="rounded=1;whiteSpace=wrap;html=1;" vertex="1" parent="1">
          <mxGeometry x="50" y="910" width="240" height="340" as="geometry" />
        </mxCell>
        <mxCell id="-Z-Dt84qWbkAdcUz8GqA-36" value="" style="rounded=1;whiteSpace=wrap;html=1;" vertex="1" parent="1">
          <mxGeometry x="315" y="910" width="240" height="340" as="geometry" />
        </mxCell>
        <mxCell id="-Z-Dt84qWbkAdcUz8GqA-37" value="" style="rounded=1;whiteSpace=wrap;html=1;" vertex="1" parent="1">
          <mxGeometry x="580" y="910" width="240" height="340" as="geometry" />
        </mxCell>
        <mxCell id="-Z-Dt84qWbkAdcUz8GqA-47" value="" style="group" vertex="1" connectable="0" parent="1">
          <mxGeometry x="50" y="190" width="240" height="340" as="geometry" />
        </mxCell>
        <mxCell id="-Z-Dt84qWbkAdcUz8GqA-6" value="" style="rounded=1;whiteSpace=wrap;html=1;" vertex="1" parent="-Z-Dt84qWbkAdcUz8GqA-47">
          <mxGeometry width="240" height="340" as="geometry" />
        </mxCell>
        <mxCell id="-Z-Dt84qWbkAdcUz8GqA-38" value="&lt;font style=&quot;font-size: 30px;&quot;&gt;Student&lt;/font&gt;" style="text;strokeColor=none;fillColor=none;html=1;fontSize=24;fontStyle=1;verticalAlign=middle;align=center;" vertex="1" parent="-Z-Dt84qWbkAdcUz8GqA-47">
          <mxGeometry x="20" y="20" width="140" height="50" as="geometry" />
        </mxCell>
        <mxCell id="-Z-Dt84qWbkAdcUz8GqA-43" value="" style="group" vertex="1" connectable="0" parent="-Z-Dt84qWbkAdcUz8GqA-47">
          <mxGeometry x="30" y="70" width="80" height="80" as="geometry" />
        </mxCell>
        <mxCell id="-Z-Dt84qWbkAdcUz8GqA-41" value="" style="ellipse;whiteSpace=wrap;html=1;aspect=fixed;" vertex="1" parent="-Z-Dt84qWbkAdcUz8GqA-43">
          <mxGeometry width="80" height="80" as="geometry" />
        </mxCell>
        <mxCell id="-Z-Dt84qWbkAdcUz8GqA-42" value="" style="shape=umlActor;verticalLabelPosition=bottom;verticalAlign=top;html=1;outlineConnect=0;" vertex="1" parent="-Z-Dt84qWbkAdcUz8GqA-43">
          <mxGeometry x="25" y="10" width="30" height="60" as="geometry" />
        </mxCell>
        <mxCell id="-Z-Dt84qWbkAdcUz8GqA-44" value="&lt;font style=&quot;font-size: 20px;&quot;&gt;- Identification (ID)&amp;nbsp;&lt;/font&gt;&lt;div style=&quot;font-size: 20px;&quot;&gt;&lt;font style=&quot;font-size: 20px;&quot;&gt;- Name&lt;br&gt;- Last Name&lt;br&gt;-&amp;nbsp; UUID&amp;nbsp;&lt;/font&gt;&lt;br&gt;&lt;/div&gt;&lt;div style=&quot;font-size: 20px;&quot;&gt;&lt;font style=&quot;font-size: 20px;&quot;&gt;-Active?&lt;/font&gt;&lt;/div&gt;" style="text;html=1;align=left;verticalAlign=middle;whiteSpace=wrap;rounded=0;" vertex="1" parent="-Z-Dt84qWbkAdcUz8GqA-47">
          <mxGeometry x="20" y="170" width="190" height="140" as="geometry" />
        </mxCell>
        <mxCell id="-Z-Dt84qWbkAdcUz8GqA-45" value="" style="ellipse;whiteSpace=wrap;html=1;aspect=fixed;" vertex="1" parent="-Z-Dt84qWbkAdcUz8GqA-47">
          <mxGeometry x="190" y="290" width="30" height="30" as="geometry" />
        </mxCell>
        <mxCell id="-Z-Dt84qWbkAdcUz8GqA-46" value="&lt;span style=&quot;font-size: 20px;&quot;&gt;+&lt;/span&gt;" style="text;html=1;align=left;verticalAlign=middle;whiteSpace=wrap;rounded=0;" vertex="1" parent="-Z-Dt84qWbkAdcUz8GqA-47">
          <mxGeometry x="195" y="290" width="15" height="30" as="geometry" />
        </mxCell>
        <mxCell id="-Z-Dt84qWbkAdcUz8GqA-48" value="" style="group" vertex="1" connectable="0" parent="1">
          <mxGeometry x="580" y="190" width="240" height="340" as="geometry" />
        </mxCell>
        <mxCell id="-Z-Dt84qWbkAdcUz8GqA-49" value="" style="rounded=1;whiteSpace=wrap;html=1;" vertex="1" parent="-Z-Dt84qWbkAdcUz8GqA-48">
          <mxGeometry width="240" height="340" as="geometry" />
        </mxCell>
        <mxCell id="-Z-Dt84qWbkAdcUz8GqA-50" value="&lt;font style=&quot;font-size: 30px;&quot;&gt;Student&lt;/font&gt;" style="text;strokeColor=none;fillColor=none;html=1;fontSize=24;fontStyle=1;verticalAlign=middle;align=center;" vertex="1" parent="-Z-Dt84qWbkAdcUz8GqA-48">
          <mxGeometry x="20" y="20" width="140" height="50" as="geometry" />
        </mxCell>
        <mxCell id="-Z-Dt84qWbkAdcUz8GqA-51" value="" style="group" vertex="1" connectable="0" parent="-Z-Dt84qWbkAdcUz8GqA-48">
          <mxGeometry x="30" y="70" width="80" height="80" as="geometry" />
        </mxCell>
        <mxCell id="-Z-Dt84qWbkAdcUz8GqA-52" value="" style="ellipse;whiteSpace=wrap;html=1;aspect=fixed;" vertex="1" parent="-Z-Dt84qWbkAdcUz8GqA-51">
          <mxGeometry width="80" height="80" as="geometry" />
        </mxCell>
        <mxCell id="-Z-Dt84qWbkAdcUz8GqA-53" value="" style="shape=umlActor;verticalLabelPosition=bottom;verticalAlign=top;html=1;outlineConnect=0;" vertex="1" parent="-Z-Dt84qWbkAdcUz8GqA-51">
          <mxGeometry x="25" y="10" width="30" height="60" as="geometry" />
        </mxCell>
        <mxCell id="-Z-Dt84qWbkAdcUz8GqA-54" value="&lt;font style=&quot;font-size: 20px;&quot;&gt;- Identification (ID)&amp;nbsp;&lt;/font&gt;&lt;div style=&quot;font-size: 20px;&quot;&gt;&lt;font style=&quot;font-size: 20px;&quot;&gt;- Name&lt;br&gt;- Last Name&lt;br&gt;-&amp;nbsp; UUID&amp;nbsp;&lt;/font&gt;&lt;br&gt;&lt;/div&gt;&lt;div style=&quot;font-size: 20px;&quot;&gt;&lt;font style=&quot;font-size: 20px;&quot;&gt;-Active?&lt;/font&gt;&lt;/div&gt;" style="text;html=1;align=left;verticalAlign=middle;whiteSpace=wrap;rounded=0;" vertex="1" parent="-Z-Dt84qWbkAdcUz8GqA-48">
          <mxGeometry x="20" y="170" width="190" height="140" as="geometry" />
        </mxCell>
        <mxCell id="-Z-Dt84qWbkAdcUz8GqA-55" value="" style="ellipse;whiteSpace=wrap;html=1;aspect=fixed;" vertex="1" parent="-Z-Dt84qWbkAdcUz8GqA-48">
          <mxGeometry x="190" y="290" width="30" height="30" as="geometry" />
        </mxCell>
        <mxCell id="-Z-Dt84qWbkAdcUz8GqA-56" value="&lt;span style=&quot;font-size: 20px;&quot;&gt;+&lt;/span&gt;" style="text;html=1;align=left;verticalAlign=middle;whiteSpace=wrap;rounded=0;" vertex="1" parent="-Z-Dt84qWbkAdcUz8GqA-48">
          <mxGeometry x="195" y="290" width="15" height="30" as="geometry" />
        </mxCell>
        <mxCell id="-Z-Dt84qWbkAdcUz8GqA-72" value="&lt;font style=&quot;font-size: 30px;&quot;&gt;Student&lt;/font&gt;" style="text;strokeColor=none;fillColor=none;html=1;fontSize=24;fontStyle=1;verticalAlign=middle;align=center;" vertex="1" parent="1">
          <mxGeometry x="335" y="210" width="140" height="50" as="geometry" />
        </mxCell>
        <mxCell id="-Z-Dt84qWbkAdcUz8GqA-73" value="" style="group" vertex="1" connectable="0" parent="1">
          <mxGeometry x="345" y="260" width="80" height="80" as="geometry" />
        </mxCell>
        <mxCell id="-Z-Dt84qWbkAdcUz8GqA-74" value="" style="ellipse;whiteSpace=wrap;html=1;aspect=fixed;" vertex="1" parent="-Z-Dt84qWbkAdcUz8GqA-73">
          <mxGeometry width="80" height="80" as="geometry" />
        </mxCell>
        <mxCell id="-Z-Dt84qWbkAdcUz8GqA-75" value="" style="shape=umlActor;verticalLabelPosition=bottom;verticalAlign=top;html=1;outlineConnect=0;" vertex="1" parent="-Z-Dt84qWbkAdcUz8GqA-73">
          <mxGeometry x="25" y="10" width="30" height="60" as="geometry" />
        </mxCell>
        <mxCell id="-Z-Dt84qWbkAdcUz8GqA-76" value="&lt;font style=&quot;font-size: 20px;&quot;&gt;- Identification (ID)&amp;nbsp;&lt;/font&gt;&lt;div style=&quot;font-size: 20px;&quot;&gt;&lt;font style=&quot;font-size: 20px;&quot;&gt;- Name&lt;br&gt;- Last Name&lt;br&gt;-&amp;nbsp; UUID&amp;nbsp;&lt;/font&gt;&lt;br&gt;&lt;/div&gt;&lt;div style=&quot;font-size: 20px;&quot;&gt;&lt;font style=&quot;font-size: 20px;&quot;&gt;-Active?&lt;/font&gt;&lt;/div&gt;" style="text;html=1;align=left;verticalAlign=middle;whiteSpace=wrap;rounded=0;" vertex="1" parent="1">
          <mxGeometry x="335" y="360" width="190" height="140" as="geometry" />
        </mxCell>
        <mxCell id="-Z-Dt84qWbkAdcUz8GqA-77" value="" style="ellipse;whiteSpace=wrap;html=1;aspect=fixed;" vertex="1" parent="1">
          <mxGeometry x="505" y="480" width="30" height="30" as="geometry" />
        </mxCell>
        <mxCell id="-Z-Dt84qWbkAdcUz8GqA-78" value="&lt;span style=&quot;font-size: 20px;&quot;&gt;+&lt;/span&gt;" style="text;html=1;align=left;verticalAlign=middle;whiteSpace=wrap;rounded=0;" vertex="1" parent="1">
          <mxGeometry x="510" y="480" width="15" height="30" as="geometry" />
        </mxCell>
        <mxCell id="-Z-Dt84qWbkAdcUz8GqA-100" value="" style="rounded=1;whiteSpace=wrap;html=1;" vertex="1" parent="1">
          <mxGeometry x="315" y="550" width="240" height="340" as="geometry" />
        </mxCell>
        <mxCell id="-Z-Dt84qWbkAdcUz8GqA-101" value="" style="rounded=1;whiteSpace=wrap;html=1;" vertex="1" parent="1">
          <mxGeometry x="580" y="550" width="240" height="340" as="geometry" />
        </mxCell>
        <mxCell id="-Z-Dt84qWbkAdcUz8GqA-102" value="" style="group" vertex="1" connectable="0" parent="1">
          <mxGeometry x="50" y="550" width="240" height="340" as="geometry" />
        </mxCell>
        <mxCell id="-Z-Dt84qWbkAdcUz8GqA-103" value="" style="rounded=1;whiteSpace=wrap;html=1;" vertex="1" parent="-Z-Dt84qWbkAdcUz8GqA-102">
          <mxGeometry width="240" height="340" as="geometry" />
        </mxCell>
        <mxCell id="-Z-Dt84qWbkAdcUz8GqA-104" value="&lt;font style=&quot;font-size: 30px;&quot;&gt;Student&lt;/font&gt;" style="text;strokeColor=none;fillColor=none;html=1;fontSize=24;fontStyle=1;verticalAlign=middle;align=center;" vertex="1" parent="-Z-Dt84qWbkAdcUz8GqA-102">
          <mxGeometry x="20" y="20" width="140" height="50" as="geometry" />
        </mxCell>
        <mxCell id="-Z-Dt84qWbkAdcUz8GqA-105" value="" style="group" vertex="1" connectable="0" parent="-Z-Dt84qWbkAdcUz8GqA-102">
          <mxGeometry x="30" y="70" width="80" height="80" as="geometry" />
        </mxCell>
        <mxCell id="-Z-Dt84qWbkAdcUz8GqA-106" value="" style="ellipse;whiteSpace=wrap;html=1;aspect=fixed;" vertex="1" parent="-Z-Dt84qWbkAdcUz8GqA-105">
          <mxGeometry width="80" height="80" as="geometry" />
        </mxCell>
        <mxCell id="-Z-Dt84qWbkAdcUz8GqA-107" value="" style="shape=umlActor;verticalLabelPosition=bottom;verticalAlign=top;html=1;outlineConnect=0;" vertex="1" parent="-Z-Dt84qWbkAdcUz8GqA-105">
          <mxGeometry x="25" y="10" width="30" height="60" as="geometry" />
        </mxCell>
        <mxCell id="-Z-Dt84qWbkAdcUz8GqA-108" value="&lt;font style=&quot;font-size: 20px;&quot;&gt;- Identification (ID)&amp;nbsp;&lt;/font&gt;&lt;div style=&quot;font-size: 20px;&quot;&gt;&lt;font style=&quot;font-size: 20px;&quot;&gt;- Name&lt;br&gt;- Last Name&lt;br&gt;-&amp;nbsp; UUID&amp;nbsp;&lt;/font&gt;&lt;br&gt;&lt;/div&gt;&lt;div style=&quot;font-size: 20px;&quot;&gt;&lt;font style=&quot;font-size: 20px;&quot;&gt;-Active?&lt;/font&gt;&lt;/div&gt;" style="text;html=1;align=left;verticalAlign=middle;whiteSpace=wrap;rounded=0;" vertex="1" parent="-Z-Dt84qWbkAdcUz8GqA-102">
          <mxGeometry x="20" y="170" width="190" height="140" as="geometry" />
        </mxCell>
        <mxCell id="-Z-Dt84qWbkAdcUz8GqA-109" value="" style="ellipse;whiteSpace=wrap;html=1;aspect=fixed;" vertex="1" parent="-Z-Dt84qWbkAdcUz8GqA-102">
          <mxGeometry x="190" y="290" width="30" height="30" as="geometry" />
        </mxCell>
        <mxCell id="-Z-Dt84qWbkAdcUz8GqA-110" value="&lt;span style=&quot;font-size: 20px;&quot;&gt;+&lt;/span&gt;" style="text;html=1;align=left;verticalAlign=middle;whiteSpace=wrap;rounded=0;" vertex="1" parent="-Z-Dt84qWbkAdcUz8GqA-102">
          <mxGeometry x="195" y="290" width="15" height="30" as="geometry" />
        </mxCell>
        <mxCell id="-Z-Dt84qWbkAdcUz8GqA-111" value="" style="group" vertex="1" connectable="0" parent="1">
          <mxGeometry x="580" y="550" width="240" height="340" as="geometry" />
        </mxCell>
        <mxCell id="-Z-Dt84qWbkAdcUz8GqA-112" value="" style="rounded=1;whiteSpace=wrap;html=1;" vertex="1" parent="-Z-Dt84qWbkAdcUz8GqA-111">
          <mxGeometry width="240" height="340" as="geometry" />
        </mxCell>
        <mxCell id="-Z-Dt84qWbkAdcUz8GqA-113" value="&lt;font style=&quot;font-size: 30px;&quot;&gt;Student&lt;/font&gt;" style="text;strokeColor=none;fillColor=none;html=1;fontSize=24;fontStyle=1;verticalAlign=middle;align=center;" vertex="1" parent="-Z-Dt84qWbkAdcUz8GqA-111">
          <mxGeometry x="20" y="20" width="140" height="50" as="geometry" />
        </mxCell>
        <mxCell id="-Z-Dt84qWbkAdcUz8GqA-114" value="" style="group" vertex="1" connectable="0" parent="-Z-Dt84qWbkAdcUz8GqA-111">
          <mxGeometry x="30" y="70" width="80" height="80" as="geometry" />
        </mxCell>
        <mxCell id="-Z-Dt84qWbkAdcUz8GqA-115" value="" style="ellipse;whiteSpace=wrap;html=1;aspect=fixed;" vertex="1" parent="-Z-Dt84qWbkAdcUz8GqA-114">
          <mxGeometry width="80" height="80" as="geometry" />
        </mxCell>
        <mxCell id="-Z-Dt84qWbkAdcUz8GqA-116" value="" style="shape=umlActor;verticalLabelPosition=bottom;verticalAlign=top;html=1;outlineConnect=0;" vertex="1" parent="-Z-Dt84qWbkAdcUz8GqA-114">
          <mxGeometry x="25" y="10" width="30" height="60" as="geometry" />
        </mxCell>
        <mxCell id="-Z-Dt84qWbkAdcUz8GqA-117" value="&lt;font style=&quot;font-size: 20px;&quot;&gt;- Identification (ID)&amp;nbsp;&lt;/font&gt;&lt;div style=&quot;font-size: 20px;&quot;&gt;&lt;font style=&quot;font-size: 20px;&quot;&gt;- Name&lt;br&gt;- Last Name&lt;br&gt;-&amp;nbsp; UUID&amp;nbsp;&lt;/font&gt;&lt;br&gt;&lt;/div&gt;&lt;div style=&quot;font-size: 20px;&quot;&gt;&lt;font style=&quot;font-size: 20px;&quot;&gt;-Active?&lt;/font&gt;&lt;/div&gt;" style="text;html=1;align=left;verticalAlign=middle;whiteSpace=wrap;rounded=0;" vertex="1" parent="-Z-Dt84qWbkAdcUz8GqA-111">
          <mxGeometry x="20" y="170" width="190" height="140" as="geometry" />
        </mxCell>
        <mxCell id="-Z-Dt84qWbkAdcUz8GqA-118" value="" style="ellipse;whiteSpace=wrap;html=1;aspect=fixed;" vertex="1" parent="-Z-Dt84qWbkAdcUz8GqA-111">
          <mxGeometry x="190" y="290" width="30" height="30" as="geometry" />
        </mxCell>
        <mxCell id="-Z-Dt84qWbkAdcUz8GqA-119" value="&lt;span style=&quot;font-size: 20px;&quot;&gt;+&lt;/span&gt;" style="text;html=1;align=left;verticalAlign=middle;whiteSpace=wrap;rounded=0;" vertex="1" parent="-Z-Dt84qWbkAdcUz8GqA-111">
          <mxGeometry x="195" y="290" width="15" height="30" as="geometry" />
        </mxCell>
        <mxCell id="-Z-Dt84qWbkAdcUz8GqA-120" value="&lt;font style=&quot;font-size: 30px;&quot;&gt;Student&lt;/font&gt;" style="text;strokeColor=none;fillColor=none;html=1;fontSize=24;fontStyle=1;verticalAlign=middle;align=center;" vertex="1" parent="1">
          <mxGeometry x="335" y="570" width="140" height="50" as="geometry" />
        </mxCell>
        <mxCell id="-Z-Dt84qWbkAdcUz8GqA-121" value="" style="group" vertex="1" connectable="0" parent="1">
          <mxGeometry x="345" y="620" width="80" height="80" as="geometry" />
        </mxCell>
        <mxCell id="-Z-Dt84qWbkAdcUz8GqA-122" value="" style="ellipse;whiteSpace=wrap;html=1;aspect=fixed;" vertex="1" parent="-Z-Dt84qWbkAdcUz8GqA-121">
          <mxGeometry width="80" height="80" as="geometry" />
        </mxCell>
        <mxCell id="-Z-Dt84qWbkAdcUz8GqA-123" value="" style="shape=umlActor;verticalLabelPosition=bottom;verticalAlign=top;html=1;outlineConnect=0;" vertex="1" parent="-Z-Dt84qWbkAdcUz8GqA-121">
          <mxGeometry x="25" y="10" width="30" height="60" as="geometry" />
        </mxCell>
        <mxCell id="-Z-Dt84qWbkAdcUz8GqA-124" value="&lt;font style=&quot;font-size: 20px;&quot;&gt;- Identification (ID)&amp;nbsp;&lt;/font&gt;&lt;div style=&quot;font-size: 20px;&quot;&gt;&lt;font style=&quot;font-size: 20px;&quot;&gt;- Name&lt;br&gt;- Last Name&lt;br&gt;-&amp;nbsp; UUID&amp;nbsp;&lt;/font&gt;&lt;br&gt;&lt;/div&gt;&lt;div style=&quot;font-size: 20px;&quot;&gt;&lt;font style=&quot;font-size: 20px;&quot;&gt;-Active?&lt;/font&gt;&lt;/div&gt;" style="text;html=1;align=left;verticalAlign=middle;whiteSpace=wrap;rounded=0;" vertex="1" parent="1">
          <mxGeometry x="335" y="720" width="190" height="140" as="geometry" />
        </mxCell>
        <mxCell id="-Z-Dt84qWbkAdcUz8GqA-125" value="" style="ellipse;whiteSpace=wrap;html=1;aspect=fixed;" vertex="1" parent="1">
          <mxGeometry x="505" y="840" width="30" height="30" as="geometry" />
        </mxCell>
        <mxCell id="-Z-Dt84qWbkAdcUz8GqA-126" value="&lt;span style=&quot;font-size: 20px;&quot;&gt;+&lt;/span&gt;" style="text;html=1;align=left;verticalAlign=middle;whiteSpace=wrap;rounded=0;" vertex="1" parent="1">
          <mxGeometry x="510" y="840" width="15" height="30" as="geometry" />
        </mxCell>
        <mxCell id="-Z-Dt84qWbkAdcUz8GqA-127" value="" style="rounded=1;whiteSpace=wrap;html=1;" vertex="1" parent="1">
          <mxGeometry x="315" y="910" width="240" height="340" as="geometry" />
        </mxCell>
        <mxCell id="-Z-Dt84qWbkAdcUz8GqA-128" value="" style="rounded=1;whiteSpace=wrap;html=1;" vertex="1" parent="1">
          <mxGeometry x="580" y="910" width="240" height="340" as="geometry" />
        </mxCell>
        <mxCell id="-Z-Dt84qWbkAdcUz8GqA-129" value="" style="group" vertex="1" connectable="0" parent="1">
          <mxGeometry x="50" y="910" width="240" height="340" as="geometry" />
        </mxCell>
        <mxCell id="-Z-Dt84qWbkAdcUz8GqA-130" value="" style="rounded=1;whiteSpace=wrap;html=1;" vertex="1" parent="-Z-Dt84qWbkAdcUz8GqA-129">
          <mxGeometry width="240" height="340" as="geometry" />
        </mxCell>
        <mxCell id="-Z-Dt84qWbkAdcUz8GqA-131" value="&lt;font style=&quot;font-size: 30px;&quot;&gt;Student&lt;/font&gt;" style="text;strokeColor=none;fillColor=none;html=1;fontSize=24;fontStyle=1;verticalAlign=middle;align=center;" vertex="1" parent="-Z-Dt84qWbkAdcUz8GqA-129">
          <mxGeometry x="20" y="20" width="140" height="50" as="geometry" />
        </mxCell>
        <mxCell id="-Z-Dt84qWbkAdcUz8GqA-132" value="" style="group" vertex="1" connectable="0" parent="-Z-Dt84qWbkAdcUz8GqA-129">
          <mxGeometry x="30" y="70" width="80" height="80" as="geometry" />
        </mxCell>
        <mxCell id="-Z-Dt84qWbkAdcUz8GqA-133" value="" style="ellipse;whiteSpace=wrap;html=1;aspect=fixed;" vertex="1" parent="-Z-Dt84qWbkAdcUz8GqA-132">
          <mxGeometry width="80" height="80" as="geometry" />
        </mxCell>
        <mxCell id="-Z-Dt84qWbkAdcUz8GqA-134" value="" style="shape=umlActor;verticalLabelPosition=bottom;verticalAlign=top;html=1;outlineConnect=0;" vertex="1" parent="-Z-Dt84qWbkAdcUz8GqA-132">
          <mxGeometry x="25" y="10" width="30" height="60" as="geometry" />
        </mxCell>
        <mxCell id="-Z-Dt84qWbkAdcUz8GqA-135" value="&lt;font style=&quot;font-size: 20px;&quot;&gt;- Identification (ID)&amp;nbsp;&lt;/font&gt;&lt;div style=&quot;font-size: 20px;&quot;&gt;&lt;font style=&quot;font-size: 20px;&quot;&gt;- Name&lt;br&gt;- Last Name&lt;br&gt;-&amp;nbsp; UUID&amp;nbsp;&lt;/font&gt;&lt;br&gt;&lt;/div&gt;&lt;div style=&quot;font-size: 20px;&quot;&gt;&lt;font style=&quot;font-size: 20px;&quot;&gt;-Active?&lt;/font&gt;&lt;/div&gt;" style="text;html=1;align=left;verticalAlign=middle;whiteSpace=wrap;rounded=0;" vertex="1" parent="-Z-Dt84qWbkAdcUz8GqA-129">
          <mxGeometry x="20" y="170" width="190" height="140" as="geometry" />
        </mxCell>
        <mxCell id="-Z-Dt84qWbkAdcUz8GqA-136" value="" style="ellipse;whiteSpace=wrap;html=1;aspect=fixed;" vertex="1" parent="-Z-Dt84qWbkAdcUz8GqA-129">
          <mxGeometry x="190" y="290" width="30" height="30" as="geometry" />
        </mxCell>
        <mxCell id="-Z-Dt84qWbkAdcUz8GqA-137" value="&lt;span style=&quot;font-size: 20px;&quot;&gt;+&lt;/span&gt;" style="text;html=1;align=left;verticalAlign=middle;whiteSpace=wrap;rounded=0;" vertex="1" parent="-Z-Dt84qWbkAdcUz8GqA-129">
          <mxGeometry x="195" y="290" width="15" height="30" as="geometry" />
        </mxCell>
        <mxCell id="-Z-Dt84qWbkAdcUz8GqA-138" value="" style="group" vertex="1" connectable="0" parent="1">
          <mxGeometry x="580" y="910" width="240" height="340" as="geometry" />
        </mxCell>
        <mxCell id="-Z-Dt84qWbkAdcUz8GqA-139" value="" style="rounded=1;whiteSpace=wrap;html=1;" vertex="1" parent="-Z-Dt84qWbkAdcUz8GqA-138">
          <mxGeometry width="240" height="340" as="geometry" />
        </mxCell>
        <mxCell id="-Z-Dt84qWbkAdcUz8GqA-140" value="&lt;font style=&quot;font-size: 30px;&quot;&gt;Student&lt;/font&gt;" style="text;strokeColor=none;fillColor=none;html=1;fontSize=24;fontStyle=1;verticalAlign=middle;align=center;" vertex="1" parent="-Z-Dt84qWbkAdcUz8GqA-138">
          <mxGeometry x="20" y="20" width="140" height="50" as="geometry" />
        </mxCell>
        <mxCell id="-Z-Dt84qWbkAdcUz8GqA-141" value="" style="group" vertex="1" connectable="0" parent="-Z-Dt84qWbkAdcUz8GqA-138">
          <mxGeometry x="30" y="70" width="80" height="80" as="geometry" />
        </mxCell>
        <mxCell id="-Z-Dt84qWbkAdcUz8GqA-142" value="" style="ellipse;whiteSpace=wrap;html=1;aspect=fixed;" vertex="1" parent="-Z-Dt84qWbkAdcUz8GqA-141">
          <mxGeometry width="80" height="80" as="geometry" />
        </mxCell>
        <mxCell id="-Z-Dt84qWbkAdcUz8GqA-143" value="" style="shape=umlActor;verticalLabelPosition=bottom;verticalAlign=top;html=1;outlineConnect=0;" vertex="1" parent="-Z-Dt84qWbkAdcUz8GqA-141">
          <mxGeometry x="25" y="10" width="30" height="60" as="geometry" />
        </mxCell>
        <mxCell id="-Z-Dt84qWbkAdcUz8GqA-144" value="&lt;font style=&quot;font-size: 20px;&quot;&gt;- Identification (ID)&amp;nbsp;&lt;/font&gt;&lt;div style=&quot;font-size: 20px;&quot;&gt;&lt;font style=&quot;font-size: 20px;&quot;&gt;- Name&lt;br&gt;- Last Name&lt;br&gt;-&amp;nbsp; UUID&amp;nbsp;&lt;/font&gt;&lt;br&gt;&lt;/div&gt;&lt;div style=&quot;font-size: 20px;&quot;&gt;&lt;font style=&quot;font-size: 20px;&quot;&gt;-Active?&lt;/font&gt;&lt;/div&gt;" style="text;html=1;align=left;verticalAlign=middle;whiteSpace=wrap;rounded=0;" vertex="1" parent="-Z-Dt84qWbkAdcUz8GqA-138">
          <mxGeometry x="20" y="170" width="190" height="140" as="geometry" />
        </mxCell>
        <mxCell id="-Z-Dt84qWbkAdcUz8GqA-145" value="" style="ellipse;whiteSpace=wrap;html=1;aspect=fixed;" vertex="1" parent="-Z-Dt84qWbkAdcUz8GqA-138">
          <mxGeometry x="190" y="290" width="30" height="30" as="geometry" />
        </mxCell>
        <mxCell id="-Z-Dt84qWbkAdcUz8GqA-146" value="&lt;span style=&quot;font-size: 20px;&quot;&gt;+&lt;/span&gt;" style="text;html=1;align=left;verticalAlign=middle;whiteSpace=wrap;rounded=0;" vertex="1" parent="-Z-Dt84qWbkAdcUz8GqA-138">
          <mxGeometry x="195" y="290" width="15" height="30" as="geometry" />
        </mxCell>
        <mxCell id="-Z-Dt84qWbkAdcUz8GqA-147" value="&lt;font style=&quot;font-size: 30px;&quot;&gt;Student&lt;/font&gt;" style="text;strokeColor=none;fillColor=none;html=1;fontSize=24;fontStyle=1;verticalAlign=middle;align=center;" vertex="1" parent="1">
          <mxGeometry x="335" y="930" width="140" height="50" as="geometry" />
        </mxCell>
        <mxCell id="-Z-Dt84qWbkAdcUz8GqA-148" value="" style="group" vertex="1" connectable="0" parent="1">
          <mxGeometry x="345" y="980" width="80" height="80" as="geometry" />
        </mxCell>
        <mxCell id="-Z-Dt84qWbkAdcUz8GqA-149" value="" style="ellipse;whiteSpace=wrap;html=1;aspect=fixed;" vertex="1" parent="-Z-Dt84qWbkAdcUz8GqA-148">
          <mxGeometry width="80" height="80" as="geometry" />
        </mxCell>
        <mxCell id="-Z-Dt84qWbkAdcUz8GqA-150" value="" style="shape=umlActor;verticalLabelPosition=bottom;verticalAlign=top;html=1;outlineConnect=0;" vertex="1" parent="-Z-Dt84qWbkAdcUz8GqA-148">
          <mxGeometry x="25" y="10" width="30" height="60" as="geometry" />
        </mxCell>
        <mxCell id="-Z-Dt84qWbkAdcUz8GqA-151" value="&lt;font style=&quot;font-size: 20px;&quot;&gt;- Identification (ID)&amp;nbsp;&lt;/font&gt;&lt;div style=&quot;font-size: 20px;&quot;&gt;&lt;font style=&quot;font-size: 20px;&quot;&gt;- Name&lt;br&gt;- Last Name&lt;br&gt;-&amp;nbsp; UUID&amp;nbsp;&lt;/font&gt;&lt;br&gt;&lt;/div&gt;&lt;div style=&quot;font-size: 20px;&quot;&gt;&lt;font style=&quot;font-size: 20px;&quot;&gt;-Active?&lt;/font&gt;&lt;/div&gt;" style="text;html=1;align=left;verticalAlign=middle;whiteSpace=wrap;rounded=0;" vertex="1" parent="1">
          <mxGeometry x="335" y="1080" width="190" height="140" as="geometry" />
        </mxCell>
        <mxCell id="-Z-Dt84qWbkAdcUz8GqA-152" value="" style="ellipse;whiteSpace=wrap;html=1;aspect=fixed;" vertex="1" parent="1">
          <mxGeometry x="505" y="1200" width="30" height="30" as="geometry" />
        </mxCell>
        <mxCell id="-Z-Dt84qWbkAdcUz8GqA-153" value="&lt;span style=&quot;font-size: 20px;&quot;&gt;+&lt;/span&gt;" style="text;html=1;align=left;verticalAlign=middle;whiteSpace=wrap;rounded=0;" vertex="1" parent="1">
          <mxGeometry x="510" y="1200" width="15" height="30" as="geometry" />
        </mxCell>
        <mxCell id="-Z-Dt84qWbkAdcUz8GqA-155" value="" style="ellipse;whiteSpace=wrap;html=1;aspect=fixed;" vertex="1" parent="1">
          <mxGeometry x="640" y="90" width="50" height="50" as="geometry" />
        </mxCell>
        <mxCell id="-Z-Dt84qWbkAdcUz8GqA-156" value="&lt;font style=&quot;font-size: 7px;&quot;&gt;[Search icon]&lt;/font&gt;" style="text;html=1;align=center;verticalAlign=middle;whiteSpace=wrap;rounded=0;" vertex="1" parent="1">
          <mxGeometry x="645" y="100" width="40" height="30" as="geometry" />
        </mxCell>
        <mxCell id="-Z-Dt84qWbkAdcUz8GqA-157" value="&lt;span style=&quot;font-size: 7px;&quot;&gt;[LIST&lt;/span&gt;&lt;div&gt;&lt;span style=&quot;font-size: 7px;&quot;&gt;MODE]&lt;/span&gt;&lt;/div&gt;" style="text;html=1;align=center;verticalAlign=middle;whiteSpace=wrap;rounded=0;" vertex="1" parent="1">
          <mxGeometry x="705" y="100" width="40" height="30" as="geometry" />
        </mxCell>
        <mxCell id="-Z-Dt84qWbkAdcUz8GqA-158" value="" style="rounded=0;whiteSpace=wrap;html=1;" vertex="1" parent="1">
          <mxGeometry x="45" y="1280" width="825" height="70" as="geometry" />
        </mxCell>
        <mxCell id="-Z-Dt84qWbkAdcUz8GqA-160" value="Students management - Page" style="text;html=1;align=center;verticalAlign=middle;whiteSpace=wrap;rounded=0;" vertex="1" parent="1">
          <mxGeometry x="65" y="1300" width="170" height="30" as="geometry" />
        </mxCell>
        <mxCell id="-Z-Dt84qWbkAdcUz8GqA-163" value="" style="line;strokeWidth=2;direction=south;html=1;rotation=90;" vertex="1" parent="1">
          <mxGeometry x="80" y="35" width="10" height="20" as="geometry" />
        </mxCell>
        <mxCell id="-Z-Dt84qWbkAdcUz8GqA-165" value="" style="line;strokeWidth=2;direction=south;html=1;rotation=90;" vertex="1" parent="1">
          <mxGeometry x="80" y="45" width="10" height="20" as="geometry" />
        </mxCell>
        <mxCell id="-Z-Dt84qWbkAdcUz8GqA-166" value="" style="line;strokeWidth=2;direction=south;html=1;rotation=90;" vertex="1" parent="1">
          <mxGeometry x="80" y="55" width="10" height="20" as="geometry" />
        </mxCell>
        <mxCell id="bUiT2lNdzrFgnWciwzre-1" value="&lt;font style=&quot;font-size: 20px;&quot;&gt;&amp;lt;-&lt;/font&gt;" style="text;html=1;align=center;verticalAlign=middle;whiteSpace=wrap;rounded=0;" vertex="1" parent="1">
          <mxGeometry x="805" y="1300" width="60" height="30" as="geometry" />
        </mxCell>
        <mxCell id="47sCzFHPYYhViZaKht7Z-1" value="" style="shape=process;whiteSpace=wrap;html=1;backgroundOutline=1;rotation=90;" vertex="1" parent="1">
          <mxGeometry x="300" y="700" width="1117.5" height="30" as="geometry" />
        </mxCell>
      </root>
    </mxGraphModel>
  </diagram>
  <diagram name="Classes" id="navyBwL9LzaPC5VyvOeC">
    <mxGraphModel dx="1379" dy="776" grid="1" gridSize="10" guides="1" tooltips="1" connect="1" arrows="1" fold="1" page="1" pageScale="1" pageWidth="850" pageHeight="1100" math="0" shadow="0">
      <root>
        <mxCell id="_xoeYzwLAPId9S7Far2W-0" />
        <mxCell id="_xoeYzwLAPId9S7Far2W-1" parent="_xoeYzwLAPId9S7Far2W-0" />
        <mxCell id="_xoeYzwLAPId9S7Far2W-2" value="" style="rounded=0;whiteSpace=wrap;html=1;" vertex="1" parent="_xoeYzwLAPId9S7Far2W-1">
          <mxGeometry x="50" y="20" width="770" height="130" as="geometry" />
        </mxCell>
        <mxCell id="_xoeYzwLAPId9S7Far2W-3" value="Students management - Page" style="text;html=1;align=center;verticalAlign=middle;whiteSpace=wrap;rounded=0;" vertex="1" parent="_xoeYzwLAPId9S7Far2W-1">
          <mxGeometry x="110" y="90" width="170" height="30" as="geometry" />
        </mxCell>
        <mxCell id="_xoeYzwLAPId9S7Far2W-4" value="&lt;font style=&quot;font-size: 30px;&quot;&gt;Welcome&lt;/font&gt;" style="text;strokeColor=none;fillColor=none;html=1;fontSize=24;fontStyle=1;verticalAlign=middle;align=center;" vertex="1" parent="_xoeYzwLAPId9S7Far2W-1">
          <mxGeometry x="110" y="30" width="140" height="50" as="geometry" />
        </mxCell>
        <mxCell id="_xoeYzwLAPId9S7Far2W-5" value="" style="ellipse;whiteSpace=wrap;html=1;aspect=fixed;" vertex="1" parent="_xoeYzwLAPId9S7Far2W-1">
          <mxGeometry x="645" y="80" width="50" height="50" as="geometry" />
        </mxCell>
        <mxCell id="_xoeYzwLAPId9S7Far2W-6" value="" style="ellipse;whiteSpace=wrap;html=1;aspect=fixed;" vertex="1" parent="_xoeYzwLAPId9S7Far2W-1">
          <mxGeometry x="705" y="80" width="50" height="50" as="geometry" />
        </mxCell>
        <mxCell id="_xoeYzwLAPId9S7Far2W-7" value="" style="ellipse;whiteSpace=wrap;html=1;aspect=fixed;" vertex="1" parent="_xoeYzwLAPId9S7Far2W-1">
          <mxGeometry x="765" y="80" width="50" height="50" as="geometry" />
        </mxCell>
        <mxCell id="_xoeYzwLAPId9S7Far2W-8" value="&lt;font style=&quot;font-size: 22px;&quot;&gt;+&lt;/font&gt;" style="text;html=1;align=center;verticalAlign=middle;whiteSpace=wrap;rounded=0;" vertex="1" parent="_xoeYzwLAPId9S7Far2W-1">
          <mxGeometry x="710" y="90" width="40" height="30" as="geometry" />
        </mxCell>
        <mxCell id="_xoeYzwLAPId9S7Far2W-9" value="&lt;font style=&quot;font-size: 22px;&quot;&gt;-&lt;/font&gt;" style="text;html=1;align=center;verticalAlign=middle;whiteSpace=wrap;rounded=0;" vertex="1" parent="_xoeYzwLAPId9S7Far2W-1">
          <mxGeometry x="770" y="90" width="40" height="30" as="geometry" />
        </mxCell>
        <mxCell id="_xoeYzwLAPId9S7Far2W-97" value="" style="ellipse;whiteSpace=wrap;html=1;aspect=fixed;" vertex="1" parent="_xoeYzwLAPId9S7Far2W-1">
          <mxGeometry x="580" y="80" width="50" height="50" as="geometry" />
        </mxCell>
        <mxCell id="_xoeYzwLAPId9S7Far2W-98" value="&lt;font style=&quot;font-size: 7px;&quot;&gt;[Search icon]&lt;/font&gt;" style="text;html=1;align=center;verticalAlign=middle;whiteSpace=wrap;rounded=0;" vertex="1" parent="_xoeYzwLAPId9S7Far2W-1">
          <mxGeometry x="585" y="90" width="40" height="30" as="geometry" />
        </mxCell>
        <mxCell id="_xoeYzwLAPId9S7Far2W-99" value="&lt;span style=&quot;font-size: 7px;&quot;&gt;[LIST&lt;/span&gt;&lt;div&gt;&lt;span style=&quot;font-size: 7px;&quot;&gt;MODE]&lt;/span&gt;&lt;/div&gt;" style="text;html=1;align=center;verticalAlign=middle;whiteSpace=wrap;rounded=0;" vertex="1" parent="_xoeYzwLAPId9S7Far2W-1">
          <mxGeometry x="650" y="90" width="40" height="30" as="geometry" />
        </mxCell>
        <mxCell id="_xoeYzwLAPId9S7Far2W-100" value="" style="rounded=0;whiteSpace=wrap;html=1;" vertex="1" parent="_xoeYzwLAPId9S7Far2W-1">
          <mxGeometry x="50" y="1330" width="770" height="70" as="geometry" />
        </mxCell>
        <mxCell id="_xoeYzwLAPId9S7Far2W-101" value="Students management - Page" style="text;html=1;align=center;verticalAlign=middle;whiteSpace=wrap;rounded=0;" vertex="1" parent="_xoeYzwLAPId9S7Far2W-1">
          <mxGeometry x="70" y="1350" width="170" height="30" as="geometry" />
        </mxCell>
        <mxCell id="_xoeYzwLAPId9S7Far2W-102" value="" style="line;strokeWidth=2;direction=south;html=1;rotation=90;" vertex="1" parent="_xoeYzwLAPId9S7Far2W-1">
          <mxGeometry x="80" y="35" width="10" height="20" as="geometry" />
        </mxCell>
        <mxCell id="_xoeYzwLAPId9S7Far2W-103" value="" style="line;strokeWidth=2;direction=south;html=1;rotation=90;" vertex="1" parent="_xoeYzwLAPId9S7Far2W-1">
          <mxGeometry x="80" y="45" width="10" height="20" as="geometry" />
        </mxCell>
        <mxCell id="_xoeYzwLAPId9S7Far2W-104" value="" style="line;strokeWidth=2;direction=south;html=1;rotation=90;" vertex="1" parent="_xoeYzwLAPId9S7Far2W-1">
          <mxGeometry x="80" y="55" width="10" height="20" as="geometry" />
        </mxCell>
        <mxCell id="HW9QOX1hqZS2eR_BUNzs-0" value="&lt;font style=&quot;font-size: 20px;&quot;&gt;&amp;lt;-&lt;/font&gt;" style="text;html=1;align=center;verticalAlign=middle;whiteSpace=wrap;rounded=0;" vertex="1" parent="_xoeYzwLAPId9S7Far2W-1">
          <mxGeometry x="755" y="1350" width="60" height="30" as="geometry" />
        </mxCell>
        <mxCell id="_xoeYzwLAPId9S7Far2W-19" value="" style="rounded=1;whiteSpace=wrap;html=1;container=0;" vertex="1" parent="_xoeYzwLAPId9S7Far2W-1">
          <mxGeometry x="50" y="190" width="720" height="170" as="geometry" />
        </mxCell>
        <mxCell id="_xoeYzwLAPId9S7Far2W-22" value="" style="ellipse;whiteSpace=wrap;html=1;aspect=fixed;container=0;" vertex="1" parent="_xoeYzwLAPId9S7Far2W-1">
          <mxGeometry x="100" y="220.00294117647059" width="54.117647058823536" height="54.117647058823536" as="geometry" />
        </mxCell>
        <mxCell id="_xoeYzwLAPId9S7Far2W-20" value="&lt;font style=&quot;font-size: 30px;&quot;&gt;&lt;span style=&quot;white-space: pre;&quot;&gt;&#x9;&lt;/span&gt;UID&amp;nbsp; &amp;nbsp;-&amp;nbsp; &amp;nbsp; Classname&lt;/font&gt;" style="text;strokeColor=none;fillColor=none;html=1;fontSize=24;fontStyle=1;verticalAlign=middle;align=center;container=0;" vertex="1" parent="_xoeYzwLAPId9S7Far2W-1">
          <mxGeometry x="30" y="230.15" width="520" height="33.82" as="geometry" />
        </mxCell>
        <mxCell id="_xoeYzwLAPId9S7Far2W-24" value="&lt;div style=&quot;font-size: 20px;&quot;&gt;&lt;font style=&quot;font-size: 20px;&quot;&gt;&amp;nbsp;&lt;/font&gt;&lt;/div&gt;&lt;div style=&quot;font-size: 20px;&quot;&gt;&lt;font style=&quot;font-size: 20px;&quot;&gt;- Teacher Name&lt;span style=&quot;white-space: pre;&quot;&gt;&#x9;&lt;/span&gt;&lt;span style=&quot;white-space: pre;&quot;&gt;&#x9;&lt;/span&gt;&lt;/font&gt;&lt;font style=&quot;background-color: initial;&quot;&gt;-&amp;nbsp;&lt;/font&gt;&lt;span style=&quot;background-color: initial;&quot;&gt;Students (quantity)&lt;/span&gt;&lt;/div&gt;" style="text;html=1;align=left;verticalAlign=middle;whiteSpace=wrap;rounded=0;container=0;" vertex="1" parent="_xoeYzwLAPId9S7Far2W-1">
          <mxGeometry x="145" y="274.12" width="580" height="48.53" as="geometry" />
        </mxCell>
        <mxCell id="Nuv5fMuH6CwcxpCCvBmu-2" value="" style="ellipse;whiteSpace=wrap;html=1;aspect=fixed;container=0;" vertex="1" parent="_xoeYzwLAPId9S7Far2W-1">
          <mxGeometry x="720" y="318.53" width="30" height="30" as="geometry" />
        </mxCell>
        <mxCell id="Nuv5fMuH6CwcxpCCvBmu-3" value="&lt;span style=&quot;font-size: 20px;&quot;&gt;+&lt;/span&gt;" style="text;html=1;align=left;verticalAlign=middle;whiteSpace=wrap;rounded=0;container=0;" vertex="1" parent="_xoeYzwLAPId9S7Far2W-1">
          <mxGeometry x="725" y="318.53" width="15" height="30" as="geometry" />
        </mxCell>
        <mxCell id="Nuv5fMuH6CwcxpCCvBmu-12" value="" style="ellipse;shape=cloud;whiteSpace=wrap;html=1;" vertex="1" parent="_xoeYzwLAPId9S7Far2W-1">
          <mxGeometry x="107.06" y="227.06" width="40" height="40" as="geometry" />
        </mxCell>
        <mxCell id="Nuv5fMuH6CwcxpCCvBmu-13" value="" style="rounded=1;whiteSpace=wrap;html=1;container=0;" vertex="1" parent="_xoeYzwLAPId9S7Far2W-1">
          <mxGeometry x="50" y="380" width="720" height="170" as="geometry" />
        </mxCell>
        <mxCell id="Nuv5fMuH6CwcxpCCvBmu-14" value="" style="ellipse;whiteSpace=wrap;html=1;aspect=fixed;container=0;" vertex="1" parent="_xoeYzwLAPId9S7Far2W-1">
          <mxGeometry x="100" y="410.0029411764706" width="54.117647058823536" height="54.117647058823536" as="geometry" />
        </mxCell>
        <mxCell id="Nuv5fMuH6CwcxpCCvBmu-15" value="&lt;font style=&quot;font-size: 30px;&quot;&gt;&lt;span style=&quot;white-space: pre;&quot;&gt;&#x9;&lt;/span&gt;UID&amp;nbsp; &amp;nbsp;-&amp;nbsp; &amp;nbsp; Classname&lt;/font&gt;" style="text;strokeColor=none;fillColor=none;html=1;fontSize=24;fontStyle=1;verticalAlign=middle;align=center;container=0;" vertex="1" parent="_xoeYzwLAPId9S7Far2W-1">
          <mxGeometry x="30" y="420.15" width="520" height="33.82" as="geometry" />
        </mxCell>
        <mxCell id="Nuv5fMuH6CwcxpCCvBmu-16" value="&lt;div style=&quot;font-size: 20px;&quot;&gt;&lt;font style=&quot;font-size: 20px;&quot;&gt;&amp;nbsp;&lt;/font&gt;&lt;/div&gt;&lt;div style=&quot;font-size: 20px;&quot;&gt;&lt;font style=&quot;font-size: 20px;&quot;&gt;- Teacher Name&lt;span style=&quot;white-space: pre;&quot;&gt;&#x9;&lt;/span&gt;&lt;span style=&quot;white-space: pre;&quot;&gt;&#x9;&lt;/span&gt;&lt;/font&gt;&lt;font style=&quot;background-color: initial;&quot;&gt;-&amp;nbsp;&lt;/font&gt;&lt;span style=&quot;background-color: initial;&quot;&gt;Students (quantity)&lt;/span&gt;&lt;/div&gt;" style="text;html=1;align=left;verticalAlign=middle;whiteSpace=wrap;rounded=0;container=0;" vertex="1" parent="_xoeYzwLAPId9S7Far2W-1">
          <mxGeometry x="145" y="464.12" width="580" height="48.53" as="geometry" />
        </mxCell>
        <mxCell id="Nuv5fMuH6CwcxpCCvBmu-17" value="" style="ellipse;whiteSpace=wrap;html=1;aspect=fixed;container=0;" vertex="1" parent="_xoeYzwLAPId9S7Far2W-1">
          <mxGeometry x="720" y="508.53" width="30" height="30" as="geometry" />
        </mxCell>
        <mxCell id="Nuv5fMuH6CwcxpCCvBmu-18" value="&lt;span style=&quot;font-size: 20px;&quot;&gt;+&lt;/span&gt;" style="text;html=1;align=left;verticalAlign=middle;whiteSpace=wrap;rounded=0;container=0;" vertex="1" parent="_xoeYzwLAPId9S7Far2W-1">
          <mxGeometry x="725" y="508.53" width="15" height="30" as="geometry" />
        </mxCell>
        <mxCell id="Nuv5fMuH6CwcxpCCvBmu-19" value="" style="ellipse;shape=cloud;whiteSpace=wrap;html=1;" vertex="1" parent="_xoeYzwLAPId9S7Far2W-1">
          <mxGeometry x="107.06" y="417.06" width="40" height="40" as="geometry" />
        </mxCell>
        <mxCell id="Nuv5fMuH6CwcxpCCvBmu-20" value="" style="rounded=1;whiteSpace=wrap;html=1;container=0;" vertex="1" parent="_xoeYzwLAPId9S7Far2W-1">
          <mxGeometry x="50" y="570" width="720" height="170" as="geometry" />
        </mxCell>
        <mxCell id="Nuv5fMuH6CwcxpCCvBmu-21" value="" style="ellipse;whiteSpace=wrap;html=1;aspect=fixed;container=0;" vertex="1" parent="_xoeYzwLAPId9S7Far2W-1">
          <mxGeometry x="100" y="600.0029411764706" width="54.117647058823536" height="54.117647058823536" as="geometry" />
        </mxCell>
        <mxCell id="Nuv5fMuH6CwcxpCCvBmu-22" value="&lt;font style=&quot;font-size: 30px;&quot;&gt;&lt;span style=&quot;white-space: pre;&quot;&gt;&#x9;&lt;/span&gt;UID&amp;nbsp; &amp;nbsp;-&amp;nbsp; &amp;nbsp; Classname&lt;/font&gt;" style="text;strokeColor=none;fillColor=none;html=1;fontSize=24;fontStyle=1;verticalAlign=middle;align=center;container=0;" vertex="1" parent="_xoeYzwLAPId9S7Far2W-1">
          <mxGeometry x="30" y="610.15" width="520" height="33.82" as="geometry" />
        </mxCell>
        <mxCell id="Nuv5fMuH6CwcxpCCvBmu-23" value="&lt;div style=&quot;font-size: 20px;&quot;&gt;&lt;font style=&quot;font-size: 20px;&quot;&gt;&amp;nbsp;&lt;/font&gt;&lt;/div&gt;&lt;div style=&quot;font-size: 20px;&quot;&gt;&lt;font style=&quot;font-size: 20px;&quot;&gt;- Teacher Name&lt;span style=&quot;white-space: pre;&quot;&gt;&#x9;&lt;/span&gt;&lt;span style=&quot;white-space: pre;&quot;&gt;&#x9;&lt;/span&gt;&lt;/font&gt;&lt;font style=&quot;background-color: initial;&quot;&gt;-&amp;nbsp;&lt;/font&gt;&lt;span style=&quot;background-color: initial;&quot;&gt;Students (quantity)&lt;/span&gt;&lt;/div&gt;" style="text;html=1;align=left;verticalAlign=middle;whiteSpace=wrap;rounded=0;container=0;" vertex="1" parent="_xoeYzwLAPId9S7Far2W-1">
          <mxGeometry x="145" y="654.12" width="580" height="48.53" as="geometry" />
        </mxCell>
        <mxCell id="Nuv5fMuH6CwcxpCCvBmu-24" value="" style="ellipse;whiteSpace=wrap;html=1;aspect=fixed;container=0;" vertex="1" parent="_xoeYzwLAPId9S7Far2W-1">
          <mxGeometry x="720" y="698.53" width="30" height="30" as="geometry" />
        </mxCell>
        <mxCell id="Nuv5fMuH6CwcxpCCvBmu-25" value="&lt;span style=&quot;font-size: 20px;&quot;&gt;+&lt;/span&gt;" style="text;html=1;align=left;verticalAlign=middle;whiteSpace=wrap;rounded=0;container=0;" vertex="1" parent="_xoeYzwLAPId9S7Far2W-1">
          <mxGeometry x="725" y="698.53" width="15" height="30" as="geometry" />
        </mxCell>
        <mxCell id="Nuv5fMuH6CwcxpCCvBmu-26" value="" style="ellipse;shape=cloud;whiteSpace=wrap;html=1;" vertex="1" parent="_xoeYzwLAPId9S7Far2W-1">
          <mxGeometry x="107.06" y="607.06" width="40" height="40" as="geometry" />
        </mxCell>
        <mxCell id="Nuv5fMuH6CwcxpCCvBmu-27" value="" style="rounded=1;whiteSpace=wrap;html=1;container=0;" vertex="1" parent="_xoeYzwLAPId9S7Far2W-1">
          <mxGeometry x="50" y="760" width="720" height="170" as="geometry" />
        </mxCell>
        <mxCell id="Nuv5fMuH6CwcxpCCvBmu-28" value="" style="ellipse;whiteSpace=wrap;html=1;aspect=fixed;container=0;" vertex="1" parent="_xoeYzwLAPId9S7Far2W-1">
          <mxGeometry x="100" y="790.0029411764706" width="54.117647058823536" height="54.117647058823536" as="geometry" />
        </mxCell>
        <mxCell id="Nuv5fMuH6CwcxpCCvBmu-29" value="&lt;font style=&quot;font-size: 30px;&quot;&gt;&lt;span style=&quot;white-space: pre;&quot;&gt;&#x9;&lt;/span&gt;UID&amp;nbsp; &amp;nbsp;-&amp;nbsp; &amp;nbsp; Classname&lt;/font&gt;" style="text;strokeColor=none;fillColor=none;html=1;fontSize=24;fontStyle=1;verticalAlign=middle;align=center;container=0;" vertex="1" parent="_xoeYzwLAPId9S7Far2W-1">
          <mxGeometry x="30" y="800.15" width="520" height="33.82" as="geometry" />
        </mxCell>
        <mxCell id="Nuv5fMuH6CwcxpCCvBmu-30" value="&lt;div style=&quot;font-size: 20px;&quot;&gt;&lt;font style=&quot;font-size: 20px;&quot;&gt;&amp;nbsp;&lt;/font&gt;&lt;/div&gt;&lt;div style=&quot;font-size: 20px;&quot;&gt;&lt;font style=&quot;font-size: 20px;&quot;&gt;- Teacher Name&lt;span style=&quot;white-space: pre;&quot;&gt;&#x9;&lt;/span&gt;&lt;span style=&quot;white-space: pre;&quot;&gt;&#x9;&lt;/span&gt;&lt;/font&gt;&lt;font style=&quot;background-color: initial;&quot;&gt;-&amp;nbsp;&lt;/font&gt;&lt;span style=&quot;background-color: initial;&quot;&gt;Students (quantity)&lt;/span&gt;&lt;/div&gt;" style="text;html=1;align=left;verticalAlign=middle;whiteSpace=wrap;rounded=0;container=0;" vertex="1" parent="_xoeYzwLAPId9S7Far2W-1">
          <mxGeometry x="145" y="844.12" width="580" height="48.53" as="geometry" />
        </mxCell>
        <mxCell id="Nuv5fMuH6CwcxpCCvBmu-31" value="" style="ellipse;whiteSpace=wrap;html=1;aspect=fixed;container=0;" vertex="1" parent="_xoeYzwLAPId9S7Far2W-1">
          <mxGeometry x="720" y="888.53" width="30" height="30" as="geometry" />
        </mxCell>
        <mxCell id="Nuv5fMuH6CwcxpCCvBmu-32" value="&lt;span style=&quot;font-size: 20px;&quot;&gt;+&lt;/span&gt;" style="text;html=1;align=left;verticalAlign=middle;whiteSpace=wrap;rounded=0;container=0;" vertex="1" parent="_xoeYzwLAPId9S7Far2W-1">
          <mxGeometry x="725" y="888.53" width="15" height="30" as="geometry" />
        </mxCell>
        <mxCell id="Nuv5fMuH6CwcxpCCvBmu-33" value="" style="ellipse;shape=cloud;whiteSpace=wrap;html=1;" vertex="1" parent="_xoeYzwLAPId9S7Far2W-1">
          <mxGeometry x="107.06" y="797.06" width="40" height="40" as="geometry" />
        </mxCell>
        <mxCell id="Nuv5fMuH6CwcxpCCvBmu-34" value="" style="rounded=1;whiteSpace=wrap;html=1;container=0;" vertex="1" parent="_xoeYzwLAPId9S7Far2W-1">
          <mxGeometry x="50" y="950" width="720" height="170" as="geometry" />
        </mxCell>
        <mxCell id="Nuv5fMuH6CwcxpCCvBmu-35" value="" style="ellipse;whiteSpace=wrap;html=1;aspect=fixed;container=0;" vertex="1" parent="_xoeYzwLAPId9S7Far2W-1">
          <mxGeometry x="100" y="980.0029411764706" width="54.117647058823536" height="54.117647058823536" as="geometry" />
        </mxCell>
        <mxCell id="Nuv5fMuH6CwcxpCCvBmu-36" value="&lt;font style=&quot;font-size: 30px;&quot;&gt;&lt;span style=&quot;white-space: pre;&quot;&gt;&#x9;&lt;/span&gt;UID&amp;nbsp; &amp;nbsp;-&amp;nbsp; &amp;nbsp; Classname&lt;/font&gt;" style="text;strokeColor=none;fillColor=none;html=1;fontSize=24;fontStyle=1;verticalAlign=middle;align=center;container=0;" vertex="1" parent="_xoeYzwLAPId9S7Far2W-1">
          <mxGeometry x="30" y="990.15" width="520" height="33.82" as="geometry" />
        </mxCell>
        <mxCell id="Nuv5fMuH6CwcxpCCvBmu-37" value="&lt;div style=&quot;font-size: 20px;&quot;&gt;&lt;font style=&quot;font-size: 20px;&quot;&gt;&amp;nbsp;&lt;/font&gt;&lt;/div&gt;&lt;div style=&quot;font-size: 20px;&quot;&gt;&lt;font style=&quot;font-size: 20px;&quot;&gt;- Teacher Name&lt;span style=&quot;white-space: pre;&quot;&gt;&#x9;&lt;/span&gt;&lt;span style=&quot;white-space: pre;&quot;&gt;&#x9;&lt;/span&gt;&lt;/font&gt;&lt;font style=&quot;background-color: initial;&quot;&gt;-&amp;nbsp;&lt;/font&gt;&lt;span style=&quot;background-color: initial;&quot;&gt;Students (quantity)&lt;/span&gt;&lt;/div&gt;" style="text;html=1;align=left;verticalAlign=middle;whiteSpace=wrap;rounded=0;container=0;" vertex="1" parent="_xoeYzwLAPId9S7Far2W-1">
          <mxGeometry x="145" y="1034.12" width="580" height="48.53" as="geometry" />
        </mxCell>
        <mxCell id="Nuv5fMuH6CwcxpCCvBmu-38" value="" style="ellipse;whiteSpace=wrap;html=1;aspect=fixed;container=0;" vertex="1" parent="_xoeYzwLAPId9S7Far2W-1">
          <mxGeometry x="720" y="1078.53" width="30" height="30" as="geometry" />
        </mxCell>
        <mxCell id="Nuv5fMuH6CwcxpCCvBmu-39" value="&lt;span style=&quot;font-size: 20px;&quot;&gt;+&lt;/span&gt;" style="text;html=1;align=left;verticalAlign=middle;whiteSpace=wrap;rounded=0;container=0;" vertex="1" parent="_xoeYzwLAPId9S7Far2W-1">
          <mxGeometry x="725" y="1078.53" width="15" height="30" as="geometry" />
        </mxCell>
        <mxCell id="Nuv5fMuH6CwcxpCCvBmu-40" value="" style="ellipse;shape=cloud;whiteSpace=wrap;html=1;" vertex="1" parent="_xoeYzwLAPId9S7Far2W-1">
          <mxGeometry x="107.06" y="987.06" width="40" height="40" as="geometry" />
        </mxCell>
        <mxCell id="Nuv5fMuH6CwcxpCCvBmu-41" value="" style="rounded=1;whiteSpace=wrap;html=1;container=0;" vertex="1" parent="_xoeYzwLAPId9S7Far2W-1">
          <mxGeometry x="50" y="1140" width="720" height="170" as="geometry" />
        </mxCell>
        <mxCell id="Nuv5fMuH6CwcxpCCvBmu-42" value="" style="ellipse;whiteSpace=wrap;html=1;aspect=fixed;container=0;" vertex="1" parent="_xoeYzwLAPId9S7Far2W-1">
          <mxGeometry x="100" y="1170.0029411764706" width="54.117647058823536" height="54.117647058823536" as="geometry" />
        </mxCell>
        <mxCell id="Nuv5fMuH6CwcxpCCvBmu-43" value="&lt;font style=&quot;font-size: 30px;&quot;&gt;&lt;span style=&quot;white-space: pre;&quot;&gt;&#x9;&lt;/span&gt;UID&amp;nbsp; &amp;nbsp;-&amp;nbsp; &amp;nbsp; Classname&lt;/font&gt;" style="text;strokeColor=none;fillColor=none;html=1;fontSize=24;fontStyle=1;verticalAlign=middle;align=center;container=0;" vertex="1" parent="_xoeYzwLAPId9S7Far2W-1">
          <mxGeometry x="30" y="1180.15" width="520" height="33.82" as="geometry" />
        </mxCell>
        <mxCell id="Nuv5fMuH6CwcxpCCvBmu-44" value="&lt;div style=&quot;font-size: 20px;&quot;&gt;&lt;font style=&quot;font-size: 20px;&quot;&gt;&amp;nbsp;&lt;/font&gt;&lt;/div&gt;&lt;div style=&quot;font-size: 20px;&quot;&gt;&lt;font style=&quot;font-size: 20px;&quot;&gt;- Teacher Name&lt;span style=&quot;white-space: pre;&quot;&gt;&#x9;&lt;/span&gt;&lt;span style=&quot;white-space: pre;&quot;&gt;&#x9;&lt;/span&gt;&lt;/font&gt;&lt;font style=&quot;background-color: initial;&quot;&gt;-&amp;nbsp;&lt;/font&gt;&lt;span style=&quot;background-color: initial;&quot;&gt;Students (quantity)&lt;/span&gt;&lt;/div&gt;" style="text;html=1;align=left;verticalAlign=middle;whiteSpace=wrap;rounded=0;container=0;" vertex="1" parent="_xoeYzwLAPId9S7Far2W-1">
          <mxGeometry x="145" y="1224.12" width="580" height="48.53" as="geometry" />
        </mxCell>
        <mxCell id="Nuv5fMuH6CwcxpCCvBmu-45" value="" style="ellipse;whiteSpace=wrap;html=1;aspect=fixed;container=0;" vertex="1" parent="_xoeYzwLAPId9S7Far2W-1">
          <mxGeometry x="720" y="1268.53" width="30" height="30" as="geometry" />
        </mxCell>
        <mxCell id="Nuv5fMuH6CwcxpCCvBmu-46" value="&lt;span style=&quot;font-size: 20px;&quot;&gt;+&lt;/span&gt;" style="text;html=1;align=left;verticalAlign=middle;whiteSpace=wrap;rounded=0;container=0;" vertex="1" parent="_xoeYzwLAPId9S7Far2W-1">
          <mxGeometry x="725" y="1268.53" width="15" height="30" as="geometry" />
        </mxCell>
        <mxCell id="Nuv5fMuH6CwcxpCCvBmu-47" value="" style="ellipse;shape=cloud;whiteSpace=wrap;html=1;" vertex="1" parent="_xoeYzwLAPId9S7Far2W-1">
          <mxGeometry x="107.06" y="1177.06" width="40" height="40" as="geometry" />
        </mxCell>
        <mxCell id="Nuv5fMuH6CwcxpCCvBmu-48" value="" style="shape=process;whiteSpace=wrap;html=1;backgroundOutline=1;rotation=90;" vertex="1" parent="_xoeYzwLAPId9S7Far2W-1">
          <mxGeometry x="241.25" y="736.4" width="1117.5" height="30" as="geometry" />
        </mxCell>
      </root>
    </mxGraphModel>
  </diagram>
  <diagram id="Fzg3imO0M6MrjuLcKXVH" name="Page-2">
    <mxGraphModel dx="1135" dy="639" grid="1" gridSize="10" guides="1" tooltips="1" connect="1" arrows="1" fold="1" page="1" pageScale="1" pageWidth="850" pageHeight="1100" math="0" shadow="0">
      <root>
        <mxCell id="0" />
        <mxCell id="1" parent="0" />
      </root>
    </mxGraphModel>
  </diagram>
</mxfile>
